<svg width="207" height="52" viewBox="0 0 207 52" fill="none" xmlns="http://www.w3.org/2000/svg">
<path d="M47.552 21.9367L44.4067 24.4529L40.5569 27.5212L26.3922 38.8284C23.632 37.0176 21.0688 34.923 18.7444 32.5788C18.2443 32.0787 17.7647 31.5786 17.3055 31.0785L17.598 30.0908L16.3399 30.0106C13.7513 27.0494 11.7635 24.0614 10.3843 21.2794L23.2154 10.4187L27.1549 7.08945L35.5339 0L33.5209 11.7413L32.5459 17.4374L32.0222 20.4867L35.7666 20.8343L42.4488 21.4634L47.552 21.9367Z" fill="#85EB0D"/>
<path d="M8.55515 30.8032L0 30.2497L5.35955 25.7189C6.3108 27.4827 7.37836 29.1812 8.55515 30.8032Z" fill="#85EB0D"/>
<path d="M21.1772 43.2381L10.3291 51.897L14.506 37.6757C16.5752 39.7077 18.8062 41.568 21.1772 43.2381Z" fill="#85EB0D"/>
<path d="M46.6995 44.8421C44.8501 46.6947 42.2962 47.6351 39.2217 47.6351C37.1772 47.6351 34.9048 47.22 32.4593 46.377C29.3549 45.3092 26.142 43.6076 23.0015 41.4075C20.6302 39.7378 18.3991 37.8775 16.3303 35.8451C16.1841 35.7051 16.0425 35.5651 15.8963 35.4189C13.8891 33.419 12.0439 31.263 10.3779 28.9711C9.20337 27.3494 8.13792 25.6514 7.1886 23.8883C2.99909 16.0471 2.47068 8.63373 6.48248 4.61878C10.3543 0.746949 17.3856 1.10079 24.9154 4.89399L21.8519 7.47941L20.8265 8.34436C18.2537 7.25295 15.912 6.71039 13.9918 6.71039C12.2352 6.71039 10.8261 7.16803 9.92971 8.07072C8.1998 9.80062 8.11331 13.3689 9.72212 17.7487C10.0961 18.7442 10.5229 19.7191 11.0007 20.6691C12.3783 23.4495 14.3661 26.4313 16.9578 29.402C17.2723 29.7542 17.5869 30.1144 17.9218 30.4682C18.379 30.9683 18.8586 31.4684 19.3608 31.9685C21.6833 34.3113 24.2444 36.4048 27.0023 38.215C27.9348 38.8237 28.8737 39.3788 29.8063 39.8789C31.1683 40.619 32.5884 41.247 34.0524 41.7566C38.2293 43.1972 41.5838 43.0619 43.2539 41.3918C44.924 39.7216 45.0656 36.3593 43.6266 32.184C43.3313 31.3268 42.9922 30.4854 42.6107 29.663L43.0746 29.2919L46.5203 26.5476C47.1861 27.8592 47.7641 29.2136 48.2502 30.6019C50.3386 36.6943 49.7961 41.7566 46.6995 44.8421Z" fill="#85EB0D"/>
<path d="M58.3687 10.2079H76.7921V14.7827H63.9657C63.9657 18.1136 67.7452 19.779 75.3044 19.779V24.3444C70.2961 24.3444 66.5165 23.4705 63.9657 21.7228V30.333H76.7921V34.9031H58.3687V10.2079Z" fill="white"/>
<path d="M85.9335 10.2079C86.1459 10.4674 86.5044 10.8574 87.0139 11.3764C87.5235 11.8954 88.011 12.3986 88.4844 12.883C88.9577 13.3674 89.5176 13.9697 90.1671 14.6899C90.8166 15.4102 91.4252 16.1195 92.0086 16.8162C92.5921 17.5128 93.2023 18.2976 93.8518 19.1751C94.5013 20.0526 95.0973 20.905 95.6414 21.7621V10.2079H101.238V34.8983H95.6414C95.6274 33.278 95.3583 31.6699 94.8441 30.1332C94.2847 28.4333 93.5172 26.809 92.5591 25.2974C91.618 23.7878 90.6008 22.327 89.5113 20.9207C88.4723 19.5871 87.2797 18.1996 85.9335 16.758V34.9031H80.335V10.2126L85.9335 10.2079Z" fill="white"/>
<path d="M105.525 10.2079H123.95V14.7827H111.124C111.124 18.1136 114.904 19.779 122.463 19.779V24.3444C117.453 24.3444 113.674 23.4705 111.124 21.7228V30.333H123.95V34.9031H105.525V10.2079Z" fill="white"/>
<path d="M148.397 18.2866C148.397 20.2702 147.768 21.9823 146.51 23.4228C145.252 24.8633 143.581 25.7729 141.496 26.1513L142.24 27.0729C143.84 29.154 145.361 30.1946 146.804 30.1946C147.088 30.1729 147.353 30.0461 147.548 29.8392H148.185V34.9062C147.098 34.9062 146.212 34.8826 145.527 34.8354C144.792 34.7801 144.064 34.6618 143.349 34.4816C142.631 34.3138 141.941 34.0392 141.305 33.667C140.64 33.257 140.018 32.783 139.446 32.2516C138.712 31.57 138.042 30.8231 137.444 30.02L133.091 24.3758V34.8983H127.494V10.2079H138.831C141.595 10.2079 143.881 10.9696 145.687 12.493C147.494 14.0163 148.397 15.9475 148.397 18.2866ZM133.091 15.168C133.097 16.2338 133.352 17.2835 133.836 18.2331C134.337 19.2431 135.086 20.1091 136.014 20.7493C136.938 21.4126 138.049 21.7666 139.186 21.7605C140.249 21.7605 141.117 21.4355 141.79 20.7855C142.124 20.4628 142.386 20.0738 142.56 19.6437C142.734 19.2136 142.816 18.7518 142.8 18.2881C142.811 17.8123 142.717 17.3399 142.524 16.9048C142.331 16.4697 142.044 16.0828 141.684 15.7719C140.939 15.1114 139.988 14.7806 138.831 14.7796H133.091V15.168Z" fill="white"/>
<path d="M160.763 10.2079C164.612 10.2079 167.79 11.3712 170.294 13.6976C172.799 16.0241 174.051 18.977 174.05 22.5563C174.05 26.1346 172.798 29.0869 170.294 31.4134C167.791 33.7398 164.614 34.9031 160.763 34.9031H151.909V10.2126L160.763 10.2079ZM157.503 30.3377H160.763C162.983 30.3377 164.808 29.6038 166.237 28.136C167.666 26.6682 168.38 24.8083 168.38 22.5563C168.38 20.299 167.666 18.4386 166.237 16.975C164.808 15.5114 162.983 14.7775 160.763 14.7733H157.503V30.3377Z" fill="white"/>
<path d="M177.167 10.2079H182.766V34.8983H177.167V10.2079Z" fill="white"/>
<path d="M207 14.7827H198.852V34.9125H193.288V14.7827H185.139V10.2079H206.998L207 14.7827Z" fill="white"/>
</svg>
